<svg width="18" height="21" viewBox="0 0 18 21" fill="none" xmlns="http://www.w3.org/2000/svg">
<path fill-rule="evenodd" clip-rule="evenodd" d="M5.24973 4C5.24973 1.92893 6.92867 0.25 8.99973 0.25C11.0708 0.25 12.7497 1.92893 12.7497 4V5.00977C14.642 5.14174 16.1992 6.59586 16.4377 8.50386L17.4377 16.5039C17.7361 18.8913 15.8746 21 13.4686 21H4.53086C2.12487 21 0.263325 18.8913 0.561751 16.5039L1.56175 8.50386C1.80025 6.59586 3.35743 5.14174 5.24973 5.00977V4ZM11.2497 4V5H6.74973V4C6.74973 2.75736 7.75709 1.75 8.99973 1.75C10.2424 1.75 11.2497 2.75736 11.2497 4ZM7.40875 10.3483C7.11585 10.0554 6.64098 10.0554 6.34809 10.3483C6.05519 10.6412 6.05519 11.1161 6.34809 11.409L7.9391 13L6.34812 14.591C6.05523 14.8839 6.05523 15.3587 6.34812 15.6516C6.64102 15.9445 7.11589 15.9445 7.40878 15.6516L8.99976 14.0607L10.5907 15.6516C10.8836 15.9445 11.3585 15.9445 11.6514 15.6516C11.9443 15.3587 11.9443 14.8839 11.6514 14.591L10.0604 13L11.6514 11.409C11.9443 11.1161 11.9443 10.6412 11.6514 10.3483C11.3585 10.0554 10.8837 10.0554 10.5908 10.3483L8.99976 11.9393L7.40875 10.3483Z" fill="#093800"/>
</svg>
